# xmcd CD database file
#
# Track frame offsets:
#	150
#	18390
#	41785
#	63725
#	82223
#	98650
#	115725
#	143948
#	158453
#
# Disc length: 2407 seconds
#
# Revision: 0
# Processed by: cddbd v1.5.1PL2 Copyright (c) Steve Scherf et al.
# Submitted via: CDex 1.51
#
DISCID=74096509
DTITLE=Silje Nergaard - Hjemmefra
DYEAR=1996
DGENRE=Jazz
TTITLE0=Jeg danser, alene
TTITLE1=En fremmed jeg har møtt
TTITLE2=Vals til deg
TTITLE3=Hvor du skal gå
TTITLE4=Maskefall
TTITLE5=Hvem er du
TTITLE6=Ruby
TTITLE7=Vill
TTITLE8=Når du er borte
EXTD=YEAR: 1996
EXTT0=
EXTT1=
EXTT2=
EXTT3=
EXTT4=
EXTT5=
EXTT6=
EXTT7=
EXTT8=
PLAYORDER=
